Coordinates
version=1
nRows=25
nColumns=33
inDegrees=yes

Units are S.I. units (second, meters, Newtons, ...)
Angles are in degrees.

endheader
time	ground_thorax_rot_x	ground_thorax_rot_y	ground_thorax_rot_z	ground_thorax_tx	ground_thorax_ty	ground_thorax_tz	clav_prot_r	clav_elev_r	scapula_abduction_r	scapula_elevation_r	scapula_upward_rot_r	scapula_winging_r	shoulder_elv_r	plane_of_elev_r	axial_rot_r	elbow_flexion_r	pro_sup_r	wrist_flex_r	wrist_dev_r	clav_prot_l	clav_elev_l	scapula_abduction_l	scapula_elevation_l	scapula_upward_rot_l	scapula_winging_l	shoulder_elv_l	plane_of_elev_l	axial_rot_l	elbow_flexion_l	pro_sup_l	wrist_flex_l	wrist_dev_l	
7.2000	-35.194328	-24.716903	30.437543	-88.676464	851.595939	-52.352655	45.000000	-45.000000	40.183877	-45.000000	-30.422066	348.868052	4178.764160	-90.000000	-17.542856	3938.812824	103.968939	15.194950	11.443245	-0.502235	33.198352	-32.210695	-45.000000	-45.000000	4409.973381	-5127.612815	132.597185	-104.808858	1790.399110	405.333193	13.021596	-22.436609	
7.2100	-35.053201	-24.917961	30.646912	-88.058103	851.458800	-52.406420	45.000000	-45.000000	40.257186	-45.000000	-30.493584	348.875089	4178.765283	-90.000000	-17.534524	3938.706820	103.043498	15.142491	11.459282	-0.582132	33.203532	-32.147247	-45.000000	-45.000000	4409.940509	-5127.555696	132.600929	-104.716219	1790.319335	404.414958	13.227060	-22.330667	
7.2200	-34.903979	-25.130214	30.877685	-87.415496	851.326654	-52.456866	45.000000	-45.000000	40.334890	-45.000000	-30.598007	348.874108	4178.769328	-90.000000	-17.529061	3938.586101	102.153592	15.110660	11.476993	-0.657589	33.222766	-32.071502	-45.000000	-45.000000	4409.884529	-5127.477543	132.624927	-104.601986	1790.245836	403.563149	13.466815	-22.230691	
7.2300	-34.774483	-25.309772	31.055769	-86.723567	851.206892	-52.500654	45.000000	-45.000000	40.409678	-45.000000	-30.605665	348.882180	4178.778823	-90.000000	-17.529043	3938.484417	101.360099	15.068762	11.495383	-0.720351	33.224436	-32.012622	-45.000000	-45.000000	4409.837717	-5127.404362	132.614747	-104.439130	1790.188226	402.871607	13.632900	-22.155493	
7.2400	-34.655274	-25.473979	31.209674	-85.975629	851.098065	-52.537310	45.000000	-45.000000	40.482093	-45.000000	-30.561574	348.896558	4178.795451	-90.000000	-17.536083	3938.392241	100.656874	15.022107	11.515318	-0.777927	33.215344	-31.963332	-45.000000	-45.000000	4409.793841	-5127.328714	132.585825	-104.239992	1790.142839	402.323665	13.750429	-22.099199	
7.2500	-34.545978	-25.624582	31.344324	-85.161798	850.999363	-52.566309	45.000000	-45.000000	40.550238	-45.000000	-30.475005	348.916862	4178.818184	-90.000000	-17.549068	3938.306200	100.046583	14.981513	11.535661	-0.821776	33.205225	-31.929667	-45.000000	-45.000000	4409.748928	-5127.253141	132.549020	-104.004944	1790.112738	401.921749	13.841952	-22.062607	
7.2600	-34.446313	-25.765742	31.464670	-84.277497	850.907397	-52.588390	45.000000	-45.000000	40.609554	-45.000000	-30.356481	348.948851	4178.849452	-90.000000	-17.570315	3938.228231	99.519219	14.935860	11.556750	-0.860065	33.187956	-31.915347	-45.000000	-45.000000	4409.713176	-5127.184292	132.499281	-103.749645	1790.093134	401.635788	13.896245	-22.038829	
7.2700	-34.362661	-25.890544	31.565965	-83.321160	850.817688	-52.605189	45.000000	-45.000000	40.646597	-45.000000	-30.223377	348.997199	4178.888222	-90.000000	-17.598536	3938.153235	99.055464	14.900526	11.575755	-0.873564	33.179404	-31.945624	-45.000000	-45.000000	4409.689756	-5127.139075	132.452152	-103.478846	1790.089171	401.435932	13.949892	-22.024365	
7.2800	-34.297990	-25.997089	31.641391	-82.291763	850.725908	-52.618812	45.000000	-45.000000	40.657633	-45.000000	-30.065836	349.069721	4178.934955	-90.000000	-17.633961	3938.087814	98.645376	14.861030	11.592305	-0.866045	33.170464	-32.017873	-45.000000	-45.000000	4409.687492	-5127.121355	132.391766	-103.205050	1790.098252	401.295311	13.980166	-22.013466	
7.2900	-34.248451	-26.090689	31.699718	-81.188955	850.628017	-52.631532	45.000000	-45.000000	40.647934	-45.000000	-29.894982	349.160451	4178.985998	-90.000000	-17.672748	3938.025938	98.282393	14.829819	11.605726	-0.830025	33.172048	-32.126256	-45.000000	-45.000000	4409.695215	-5127.124716	132.329706	-102.923967	1790.122284	401.201817	14.016453	-22.004756	
7.3000	-34.202780	-26.187763	31.760824	-80.012749	850.520309	-52.645445	45.000000	-45.000000	40.634342	-45.000000	-29.712929	349.260913	4179.039847	-90.000000	-17.713375	3937.968355	97.969414	14.792319	11.618868	-0.781780	33.173782	-32.239422	-45.000000	-45.000000	4409.703864	-5127.126783	132.258202	-102.640936	1790.152352	401.142038	14.042997	-21.993355	
7.3100	-34.155349	-26.294678	31.835260	-78.763755	850.399480	-52.662116	45.000000	-45.000000	40.626081	-45.000000	-29.526576	349.362171	4179.093695	-90.000000	-17.753088	3937.910418	97.708161	14.755713	11.632435	-0.719843	33.181203	-32.354474	-45.000000	-45.000000	4409.705807	-5127.123780	132.189616	-102.347452	1790.186528	401.109604	14.079346	-21.978905	
7.3200	-34.095290	-26.427585	31.942200	-77.442683	850.262639	-52.682320	45.000000	-45.000000	40.637304	-45.000000	-29.339739	349.455457	4179.146450	-90.000000	-17.790994	3937.852931	97.504012	14.711383	11.648340	-0.660330	33.186606	-32.443785	-45.000000	-45.000000	4409.692248	-5127.095947	132.120918	-102.045626	1790.218031	401.096420	14.116875	-21.957461	
7.3300	-34.020090	-26.589190	32.085140	-76.050497	850.107411	-52.705918	45.000000	-45.000000	40.671408	-45.000000	-29.155598	349.536110	4179.197530	-90.000000	-17.826738	3937.793154	97.358275	14.663775	11.667101	-0.606204	33.191531	-32.510672	-45.000000	-45.000000	4409.662922	-5127.046345	132.060074	-101.727533	1790.244590	401.097724	14.164868	-21.927682	
7.3400	-33.931109	-26.776346	32.260947	-74.588119	849.932034	-52.731949	45.000000	-45.000000	40.725738	-45.000000	-28.970705	349.604230	4179.247655	-90.000000	-17.861206	3937.733735	97.269193	14.608612	11.688732	-0.556315	33.193120	-32.557801	-45.000000	-45.000000	4409.620151	-5126.976898	132.004567	-101.393039	1790.266109	401.107121	14.217601	-21.887419	
7.3500	-33.837828	-26.974358	32.450963	-73.056658	849.735502	-52.758883	45.000000	-45.000000	40.786007	-45.000000	-28.781404	349.669012	4179.298381	-90.000000	-17.895994	3937.675976	97.228722	14.550456	11.711426	-0.503058	33.193711	-32.610636	-45.000000	-45.000000	4409.576438	-5126.908469	131.954379	-101.039137	1790.286103	401.120088	14.276572	-21.835281	
7.3600	-33.739916	-27.183190	32.655076	-71.457245	849.517623	-52.784983	45.000000	-45.000000	40.845556	-45.000000	-28.594253	349.736601	4179.348687	-90.000000	-17.930174	3937.623197	97.228976	14.492776	11.732412	-0.456182	33.192667	-32.664970	-45.000000	-45.000000	4409.535126	-5126.839338	131.902561	-100.671322	1790.306009	401.134229	14.338798	-21.767188	
7.3700	-33.636343	-27.402029	32.873450	-69.791409	849.278983	-52.808655	45.000000	-45.000000	40.904682	-45.000000	-28.410412	349.806734	4179.397959	-90.000000	-17.963226	3937.573010	97.264518	14.436223	11.752339	-0.416403	33.189920	-32.718158	-45.000000	-45.000000	4409.495094	-5126.768970	131.848431	-100.293432	1790.324586	401.149120	14.404945	-21.682127	
7.3800	-33.526003	-27.630163	33.106605	-68.061221	849.020758	-52.828679	45.000000	-45.000000	40.963411	-45.000000	-28.232661	349.880365	4179.444948	-90.000000	-17.994016	3937.526120	97.330900	14.381327	11.770444	-0.384486	33.185517	-32.768680	-45.000000	-45.000000	4409.456235	-5126.696245	131.790904	-99.907892	1790.340853	401.165057	14.474114	-21.579207	
7.3900	-33.409737	-27.866025	33.352123	-66.269387	848.744359	-52.844278	45.000000	-45.000000	41.021793	-45.000000	-28.059244	349.957480	4179.489722	-90.000000	-18.022718	3937.480791	97.425942	14.328161	11.787108	-0.356015	33.180091	-32.816782	-45.000000	-45.000000	4409.417189	-5126.622351	131.731772	-99.518693	1790.354542	401.182506	14.546994	-21.459814	
7.4000	-33.287070	-28.110856	33.611042	-64.419115	848.451023	-52.854999	45.000000	-45.000000	41.078774	-45.000000	-27.893397	350.039031	4179.532118	-90.000000	-18.049363	3937.437858	97.549363	14.278378	11.800877	-0.336026	33.172849	-32.861218	-45.000000	-45.000000	4409.379149	-5126.546692	131.670776	-99.127495	1790.365207	401.201969	14.621281	-21.324010	
7.4100	-33.159463	-28.361723	33.880989	-62.513780	848.141338	-52.860505	45.000000	-45.000000	41.135914	-45.000000	-27.729440	350.120693	4179.572207	-90.000000	-18.074219	3937.395703	97.703778	14.230249	11.812556	-0.313257	33.165236	-32.902892	-45.000000	-45.000000	4409.337593	-5126.469590	131.611681	-98.738062	1790.373956	401.223578	14.699202	-21.176129	
7.4200	-33.029806	-28.617907	34.159912	-60.556586	847.814938	-52.860320	45.000000	-45.000000	41.189737	-45.000000	-27.564048	350.203693	4179.610902	-90.000000	-18.098527	3937.353856	97.892855	14.184649	11.821275	-0.284786	33.157691	-32.946522	-45.000000	-45.000000	4409.296654	-5126.393530	131.556649	-98.349713	1790.383259	401.246896	14.778120	-21.018878	
7.4300	-32.894052	-28.878410	34.449106	-58.550691	847.470378	-52.853654	45.000000	-45.000000	41.245722	-45.000000	-27.402795	350.286135	4179.645001	-90.000000	-18.119778	3937.315829	98.121381	14.139619	11.825638	-0.251389	33.149781	-32.988262	-45.000000	-45.000000	4409.251043	-5126.320655	131.505401	-97.967448	1790.391554	401.272416	14.858537	-20.855377	
7.4400	-32.750539	-29.144660	34.750541	-56.498961	847.105193	-52.839309	45.000000	-45.000000	41.302191	-45.000000	-27.250177	350.370097	4179.672595	-90.000000	-18.137189	3937.282600	98.393023	14.095821	11.824310	-0.220157	33.140219	-33.025703	-45.000000	-45.000000	4409.201711	-5126.252356	131.457073	-97.593412	1790.396740	401.300910	14.936892	-20.686186	
